<svg xmlns="http://www.w3.org/2000/svg" viewBox="0 0 502 502"><defs><style>.cls-1{fill:#3cc8c8;}.cls-2{fill:#fff;}</style></defs><circle class="cls-1" cx="251" cy="251" r="250"/><path class="cls-2" d="M246.7,95.69c7.49-3.86,16.63,5.06,12.66,12.42-2.33,6-11.09,7.59-15.56,3-4.74-4.37-3.19-13.06,2.9-15.45Zm-80.54,8.53c4.54-1.85,10.31,2.25,9.84,7.14.47,5.28-6.09,9.19-10.73,6.67C159.12,115.69,159.83,105.87,166.16,104.22Zm165,14c-7.1-.84-8.23-11.84-1.4-14.06,5.31-2.53,10.19,2.23,11,7.19C339.56,115.52,336,119.39,331.12,118.17ZM184.48,137.94c7.61-4.74,18.46,2.31,17.29,11-.4,8.77-12.24,13.86-18.93,7.92C176.37,152.22,177.36,141.53,184.48,137.94Zm116.1,5c3.39-8.6,17.14-8.88,21-.5,3.83,6.51-.88,14.59-7.67,16.81C304.89,160.94,296.34,151.34,300.58,143ZM237,158.8c-.08-7.41,6.77-12.91,13.91-13.43,4.75.94,9.9,2.93,11.93,7.63,3.8,6.5.43,15.42-6.4,18.41-3.13,1.71-6.85,1.07-10.25.87C241,169.78,236.59,164.83,237,158.8ZM117.22,169.58c7-4.22,16.33,3.44,13.69,10.87-1.44,6.42-10.22,9-15.24,4.94-5.36-3.84-4.51-13.08,1.56-15.83Zm257.22,0c5.89-4.5,15.62.67,14.9,8,.41,6.67-8,11.72-13.86,8.28-6.43-2.86-7.11-12.61-1-16.25ZM270.69,182.84c9.72-3.43,21.28.68,26.81,9.22,7.31,10.42,3.44,26.3-7.92,32.28-11.75,7.08-28.92,1.1-33.28-11.84-4.93-11.56,2.26-26,14.37-29.66ZM213.61,184c10.78-5,25.3-.81,30.5,10,6.12,10.56,1.39,25.26-9.56,30.71-11,6.14-26.46,1.49-31.75-9.84C196.84,203.92,202.12,189,213.61,184Zm-57.14,19.21c.83-6.83,7.37-11.28,14-11.75a15.31,15.31,0,0,1,13.6,13.39c-.47,7-6,13.87-13.55,13.84C162.17,219.37,154.87,211.22,156.47,203.19Zm168.78-10.25c8.55-4.89,20.41,2.22,20,11.87.58,10.24-12.55,17.44-21,11.44C315.39,211.25,316.08,197.19,325.25,192.94ZM190.41,229c10-2.7,21.4,1.93,26.29,11a22.6,22.6,0,0,1-5.15,28.4c-10.71,9.79-30.41,5.85-36.1-7.5-6.54-12.23,1.41-28.64,14.94-31.87Zm108.23,0c9.7-2.74,21.11.93,26.33,9.64,6.9,9.95,3.61,24.81-6.66,31.22-10.78,7.45-27.44,3.54-33.37-8.11C277.75,249.64,285,232.61,298.64,228.94Zm-172.5,11.34c8.63-3.2,18.19,6.16,14.69,14.58-2.13,7.66-13.11,10.5-18.78,4.84C115.41,254.39,117.86,242.59,126.14,240.28ZM360,252.5a13.07,13.07,0,0,1,12.31-13.66c5.91.94,11.66,5.63,11.19,12,.55,8.36-9.69,14-16.94,10.11C363.2,259.2,361.47,255.78,360,252.5ZM83.72,244.44c5.19-2.24,11.61,2.19,10.42,7.86-.28,6.42-9.92,8.9-13.45,3.53-3.13-3.74-1.25-9.47,3-11.41Zm327.33-.14c3.65-2.55,9.53-.72,11,3.48,2.45,4.59-2,10.88-7.3,10.11C407.34,258.55,405,247.5,411.05,244.3ZM218.59,275.13c13.66-3.49,28.35,7.71,28.44,21.56.88,14-13.59,26.37-27.56,23.15-10.81-1.72-19.3-12-18.94-22.7C200.5,286.86,208.37,277.3,218.59,275.13Zm54.1,0c13.86-3.81,29,7.59,28.76,21.75.74,13.72-13.28,25.7-27,23-12.89-1.63-22.39-15.55-18.79-27.86,1.81-8.19,8.78-14.84,17-16.88Zm-104.32,8.52c9.6-1.61,18.6,8.9,14.71,17.87-2.85,9.56-17,12.14-23.22,4.34C152.55,298.34,158,284.66,168.37,283.63Zm158.66.42c8.56-3.53,19.06,3.75,18.41,12.89.34,10-12.63,17-21,11.11C315,302.78,316.7,287.27,327,284.05Zm44.35,43.75c-3.35-6.14,2.73-14.28,9.68-13.14,3.44-.07,5.86,2.61,8.07,4.86.45,3.64,1.21,8-1.86,10.78C383.09,335.5,373.64,334,371.38,327.8ZM117.19,316.36c6.48-4.23,15.81,2.09,14.34,9.53-.78,6.61-9.22,10.38-14.76,6.63C110.8,329.13,111,319.45,117.19,316.36Zm128,13.8c8.49-3.68,19.3,3.59,18.49,12.78.62,10.15-12.74,17.19-21,11.09C233.44,348.8,235,333.39,245.2,330.16Zm-59.28,13.61c7.22-3.74,16.91,2.71,16.25,10.68.22,6.53-6.25,12.1-12.81,11.13-5.42-.11-9-4.91-10.7-9.45.09-5,2.17-10.47,7.26-12.35Zm120.1.12c7.43-4.53,18,2,17.29,10.47.19,8.91-11.75,14.59-18.67,8.75C298,358.53,298.77,347.53,306,343.89Zm20.89,50.78c-3.32-4.9.57-10.83,5.93-11.95,4.33.86,8.91,4.06,8,9-.63,6.67-10.53,8.7-13.92,3Zm-165.8-4.26c1.31-3.91,4.5-7.77,9.17-6.75,6.8.47,8.81,10.56,2.86,13.67C167.8,400.87,161.58,396,161.11,390.41Zm80,4.48c1.3-5.78,8.87-8.58,13.87-5.52,3.32,1.41,4.29,5,5.13,8.13-.45,1.61-.86,3.23-1.25,4.84-2.05,2.38-4.69,4.77-8.09,4.69-6.33.74-12.05-6.31-9.68-12.14Z"/></svg>