<svg xmlns="http://www.w3.org/2000/svg" viewBox="0 0 502 502"><defs><style>.cls-1{fill:#1b1e36;}.cls-2{fill:#fff;}</style></defs><circle class="cls-1" cx="251" cy="251" r="250"/><path class="cls-2" d="M251.51,32.89c-27,0-48.86,97.88-48.86,218.62s21.88,218.63,48.86,218.63,48.87-97.88,48.87-218.63S278.5,32.89,251.51,32.89Zm3.38,424.9c-3.09,4.12-6.17,1-6.17,1-12.43-14.4-18.65-41.15-18.65-41.15-21.73-70-16.56-220.17-16.56-220.17C223.73,78.25,242.32,50.08,248.63,43.83a3.85,3.85,0,0,1,5-.39c9.18,6.5,16.87,33.69,16.87,33.69,22.73,84.36,20.67,163.58,20.67,163.58,2.06,68.93-11.39,146.09-11.39,146.09C269.38,445.44,254.89,457.79,254.89,457.79Z"/><path class="cls-2" d="M441.14,142.72c-13.43-23.42-109.21,6.31-214,66.41S48.46,336.91,61.88,360.31s109.22-6.32,214-66.41S454.57,166.12,441.14,142.72ZM74.27,357.09c-5.14-.65-4-4.88-4-4.88,6.31-17.94,26.39-36.64,26.39-36.64,49.89-53.67,182.76-123.93,182.76-123.93,108.5-50.49,142.21-48.36,150.76-46a3.86,3.86,0,0,1,2.81,4.11c-1,11.2-20.84,31.4-20.84,31.4-61.83,61.73-131.57,99.38-131.57,99.38-58.77,36.1-132.39,62.82-132.39,62.82-56,20.18-73.94,13.75-73.94,13.75Z"/><path class="cls-2" d="M440.67,361.08c13.54-23.35-60.18-91.36-164.61-151.89S75.89,118.55,62.36,142,122.54,233.3,227,293.84,427.14,384.48,440.67,361.08ZM71.33,151c-2-4.74,2.22-5.89,2.22-5.89,18.69-3.52,45,4.51,45,4.51,71.43,16.27,198.8,96,198.8,96,98.06,68.62,113.1,98.85,115.36,107.43a3.85,3.85,0,0,1-2.14,4.48c-10.23,4.68-37.62-2.29-37.62-2.29C308.49,332.63,241,291.15,241,291.15c-60.66-32.71-120.64-83-120.64-83-45.57-38.38-49-57.09-49-57.09Z"/><circle class="cls-2" cx="251" cy="251" r="25.72"/><ellipse class="cls-2" cx="356.45" cy="152.23" rx="14.92" ry="15.43"/><ellipse class="cls-2" cx="111.6" cy="204.7" rx="14.92" ry="15.43"/><ellipse class="cls-2" cx="220.65" cy="394" rx="14.92" ry="15.43"/></svg>