<?xml version="1.0" encoding="utf-8"?>
<!-- Generator: Adobe Illustrator 24.1.1, SVG Export Plug-In . SVG Version: 6.00 Build 0)  -->
<svg version="1.1" id="Laag_1" xmlns:serif="http://www.serif.com/"
	 xmlns="http://www.w3.org/2000/svg" xmlns:xlink="http://www.w3.org/1999/xlink" x="0px" y="0px" viewBox="0 0 1592 1592"
	 style="enable-background:new 0 0 1592 1592;" xml:space="preserve">
<style type="text/css">
	.st0{fill:#FF5001;}
	.st1{fill:none;stroke:#FFFFFF;stroke-width:60;stroke-linejoin:round;stroke-miterlimit:119.8979;}
</style>
<g transform="matrix(1.29702,0,0,1.29686,0.0031914,-0.00311808)">
	<path class="st0" d="M1209.1,762.3c-82,328.8-415,528.9-743.9,446.9c-328.7-82-528.8-415-446.8-743.8c81.9-328.9,415-529,743.7-447
		C1090.9,100.3,1291,433.4,1209.1,762.3z"/>
</g>
<g transform="matrix(1.56274,0,0,1.56274,2.43163,0.847544)">
	<path class="st1" d="M633.8,626.3l-126-217.9l-126,217.9H633.8z"/>
</g>
<g transform="matrix(1.56274,0,0,1.56274,2.43163,0.847544)">
	<path class="st1" d="M202.8,730.3c-2.5-4.4-2.5-9.8,0-14.2l292.7-505.8c2.6-4.4,7.2-7.1,12.3-7.1c5.1,0,9.7,2.7,12.3,7.1
		l292.7,505.8c2.5,4.4,2.5,9.8,0,14.2c-2.5,4.3-7.1,6.9-12.1,6.9H215.1C210.1,737.2,205.5,734.5,202.8,730.3z"/>
</g>
<g transform="matrix(1.56274,0,0,1.56274,2.43163,0.847544)">
	<path class="st1" d="M381.8,626.3l-179,104"/>
</g>
<g transform="matrix(1.56274,0,0,1.56274,2.43163,0.847544)">
	<path class="st1" d="M633.8,626.3l179,104"/>
</g>
<g transform="matrix(1.56274,0,0,1.56274,2.43163,0.847544)">
	<path class="st1" d="M507.8,408.4V203.2"/>
</g>
</svg>
