<?xml version="1.0" encoding="UTF-8" standalone="no"?>
<!DOCTYPE svg PUBLIC "-//W3C//DTD SVG 1.1//EN" "http://www.w3.org/Graphics/SVG/1.1/DTD/svg11.dtd">
<svg width="100%" height="100%" viewBox="0 0 83 83" version="1.1" xmlns="http://www.w3.org/2000/svg" xmlns:xlink="http://www.w3.org/1999/xlink" xml:space="preserve" xmlns:serif="http://www.serif.com/" style="fill-rule:evenodd;clip-rule:evenodd;stroke-linejoin:round;stroke-miterlimit:2;">
    <g transform="matrix(1.29702,0,0,1.29686,0.0031914,-0.00311808)">
        <path d="M63.033,39.744C58.759,56.887 41.396,67.32 24.251,63.045C7.113,58.771 -3.32,41.407 0.956,24.265C5.228,7.12 22.591,-3.314 39.731,0.96C56.875,5.234 67.307,22.6 63.033,39.744Z" style="fill:rgb(34,204,119);fill-rule:nonzero;"/>
    </g>
    <g transform="matrix(0.142818,0,0,0.142818,-26.4183,-0.651609)">
        <path d="M620.266,309.3L620.101,308.993L620.073,308.942C619.973,308.633 619.898,308.31 619.784,307.976L619.7,307.82L619.672,307.769C616.187,296.115 609.276,285.775 599.841,278.098L599.827,278.072C599.548,277.859 599.255,277.621 598.975,277.409L598.589,277.122L598.31,276.91L598.19,276.81L597.924,276.623L597.804,276.523L597.538,276.336L597.418,276.236L597.139,276.024L596.993,275.937L596.714,275.725L596.568,275.638L596.268,275.438L596.122,275.351L595.945,275.083L595.786,274.971L595.486,274.771L595.327,274.659L595.022,274.459L594.863,274.347L594.563,274.147L594.404,274.035L594.085,273.811L593.926,273.699L593.582,273.488L593.423,273.376L593.079,273.165L592.92,273.053L592.576,272.842L592.417,272.73L592.073,272.519L591.888,272.419L591.544,272.208L590.804,271.808L590.42,271.586L590.235,271.486L589.851,271.264L589.666,271.164L589.282,270.942L589.082,270.818L588.698,270.596L588.498,270.472L588.089,270.263L587.889,270.139L587.48,269.93L587.203,269.782L587.189,269.756C586.989,269.632 586.78,269.547 586.581,269.423C578.092,265.06 568.926,262.164 559.471,260.857C562.123,258.007 564.551,254.958 566.734,251.735L567.082,251.218L567.108,251.204L567.269,250.952L567.48,250.608L567.592,250.449L567.803,250.105L567.915,249.946L568.126,249.602L568.238,249.443L568.449,249.099L568.561,248.94L568.772,248.596L568.884,248.437L569.069,248.106L569.181,247.947L569.366,247.616L569.453,247.47L569.638,247.139L569.725,246.993L569.91,246.662L569.997,246.516L570.156,246.199L570.243,246.053L570.402,245.736L570.489,245.59L570.648,245.273L570.735,245.127L570.907,244.836L570.994,244.69L571.167,244.399L571.254,244.253L571.402,243.976L571.489,243.83L571.637,243.553L571.698,243.421L571.846,243.144L571.907,243.012L572.055,242.735L572.116,242.603L572.264,242.326L572.874,241.006L573.008,240.706L573.191,240.306C573.325,240.006 573.433,239.714 573.567,239.411L573.593,239.397C577.661,229.371 578.615,218.347 576.33,207.771L576.316,207.745L576.288,207.694L576.204,207.538C576.143,207.238 576.082,206.944 575.996,206.66L575.996,206.595L575.954,206.517L575.968,206.543L575.844,206.313C575.754,205.9 575.663,205.487 575.533,205.062C575.443,204.649 575.313,204.224 575.197,203.824L575.046,203.543L575.018,203.492C574.931,203.209 574.845,202.925 574.758,202.642L574.674,202.486L574.661,202.46C571.566,192.089 565.418,182.887 557.02,176.06L557.007,176.034C556.767,175.834 556.501,175.646 556.261,175.446L555.929,175.196L555.663,175.009L555.543,174.909L555.317,174.734L555.197,174.634L554.971,174.459L554.851,174.359L554.599,174.198L554.479,174.098L554.213,173.911L554.093,173.811L553.827,173.624L553.707,173.524L553.441,173.337L553.295,173.25L553.029,173.063L552.883,172.976L552.617,172.789L552.471,172.702L552.18,172.529L552.034,172.442L551.743,172.269L551.597,172.182L551.306,172.009L551.16,171.922L550.869,171.749L550.723,171.662L550.418,171.462L550.272,171.375L549.967,171.175L549.821,171.088L549.49,170.903L549.344,170.816L549.014,170.631L548.855,170.519L548.524,170.334L548.365,170.222L548.035,170.037L547.876,169.925L547.532,169.714L547.347,169.614L547.003,169.403L545.893,168.803L545.629,168.681L545.615,168.655L545.06,168.355C528.846,159.928 508.247,157.391 487.522,162.708L482.131,164.092L468.495,110.992L436.895,119.092L450.486,171.982L425.2,178.5L411.6,125.779L380,133.879L393.591,186.769L328.424,203.538L337.095,237.238L363.353,230.494C364.678,230.152 366.041,229.98 367.409,229.98C374.81,229.98 381.32,235.035 383.153,242.205L419.6,384.022C421.076,389.783 417.558,395.74 411.8,397.228L388.792,403.147L390.144,443.227L455.234,426.5L469,479.294L500.584,471.167L486.984,418.251L512.262,411.77L525.867,464.685L557.451,456.558L543.8,403.436C549.152,402.036 553.756,400.848 556.941,400.024C580.297,394.017 599.184,380.324 610.613,363.249L610.999,362.679L611.025,362.665L611.212,362.399L611.956,361.199L612.178,360.815L612.302,360.615L612.524,360.231L612.624,360.046L612.846,359.662L612.946,359.477L613.168,359.093L613.868,357.798L614.079,357.454L614.179,357.269L614.39,356.925L614.49,356.74L614.675,356.409L614.775,356.224L614.96,355.894L615.06,355.709L615.245,355.379L615.318,355.208L615.503,354.878L615.576,354.707L615.735,354.39L615.822,354.244L615.981,353.927L616.068,353.781L616.227,353.464L616.314,353.318L616.473,353.001L616.56,352.855L616.719,352.538L616.806,352.392L616.965,352.075L617.052,351.929L617.186,351.629L617.273,351.483L617.407,351.183L617.468,351.051L617.614,350.709L617.814,350.274C617.96,349.932 618.114,349.615 618.239,349.286L618.251,349.247C622.822,337.968 623.897,325.571 621.337,313.673L621.225,313.465C621.15,313.142 621.076,312.82 621.001,312.497L621.001,312.432L620.819,312.094L620.764,311.994C620.646,311.53 620.554,311.052 620.41,310.601C620.362,310.332 620.295,309.84 620.266,309.3ZM434.605,214.429C439.996,213.045 462.286,207.447 469.636,205.536C481.321,202.545 492.836,203.706 501.826,208.036L502.126,208.17L502.258,208.231L502.443,208.331L502.535,208.38L502.72,208.48L502.812,208.529L502.997,208.629L503.089,208.678L503.274,208.778L503.366,208.827L503.551,208.927L503.643,208.976L503.828,209.076L503.92,209.125L504.105,209.225L504.197,209.274L504.382,209.374L504.474,209.423L504.659,209.523L504.751,209.572L504.91,209.684L505.002,209.733L505.161,209.845L505.253,209.894L505.412,210.006L505.504,210.055L505.65,210.142L505.742,210.191L505.888,210.278L505.98,210.327L506.126,210.414L506.218,210.463L506.364,210.55L506.456,210.599L506.602,210.686L506.669,210.749L506.815,210.836L506.868,210.873L507.014,210.96L507.067,210.997L507.213,211.084L507.266,211.121L507.412,211.208L507.465,211.245L507.585,211.345L507.638,211.382L507.784,211.469L507.984,211.593C508.13,211.68 508.263,211.806 508.409,211.893C513.01,215.367 516.393,220.212 518.067,225.729L518.108,225.806C518.151,225.948 518.208,226.115 518.251,226.257L518.265,226.283L518.348,226.436C518.407,226.668 518.478,226.861 518.537,227.093C518.601,227.33 518.644,227.572 518.663,227.817L518.746,227.97L518.76,227.996C518.782,228.154 518.822,228.31 518.878,228.46L518.919,228.537C520.101,234.176 519.471,240.046 517.119,245.305L516.912,245.779L516.802,246.003L516.715,246.149L516.691,246.228L516.63,246.36L516.606,246.439L516.519,246.585L516.495,246.664L516.408,246.81L516.384,246.889L516.297,247.035L516.273,247.114L516.186,247.26L516.162,247.339L516.075,247.485L516.051,247.564L515.964,247.71L515.915,247.802L515.828,247.948L515.779,248.04L515.692,248.186L515.643,248.278L515.556,248.424L515.507,248.516L515.395,248.675L515.346,248.767L515.234,248.926L515.185,249.018L515.073,249.177L515.024,249.269L514.912,249.428L514.863,249.52L514.751,249.679L514.702,249.771L514.59,249.93L514.541,250.022L514.429,250.181L514.38,250.273L514.268,250.432L514.219,250.524L514.081,250.697L514.032,250.789L513.894,250.962L513.845,251.054L513.707,251.227L513.658,251.319L513.52,251.492L513.42,251.612L513.233,251.878C507.422,260.02 497.899,266.598 486.214,269.589C478.85,271.475 456.614,277.305 451.228,278.689L434.605,214.429ZM558.117,323.152L558.2,323.305L558.214,323.331C558.245,323.512 558.289,323.654 558.32,323.831L558.376,323.935C559.622,330.153 558.726,336.614 555.835,342.259L555.552,342.774L555.416,343.012L555.316,343.197L555.267,343.289L555.18,343.435L555.131,343.527L555.044,343.673L554.995,343.765L554.883,343.924L554.834,344.016L554.722,344.175L554.673,344.267L554.561,344.426L554.512,344.518L554.4,344.677L554.351,344.769L554.239,344.928L554.19,345.02L554.078,345.179L554.029,345.271L553.917,345.43L553.868,345.522L553.756,345.681L553.707,345.773L553.595,345.932L553.546,346.024L553.408,346.197L553.359,346.289L553.221,346.462L553.172,346.554L553.048,346.754L552.999,346.846L552.875,347.046L552.826,347.138L552.702,347.338L552.627,347.444L552.503,347.644L551.753,348.704L551.602,348.916L551.377,349.234L551.251,349.368L551.013,349.661C543.956,358.673 532.573,366.086 518.748,369.635C510.029,371.886 483.685,378.776 477.275,380.412L459.34,310.627C465.74,308.965 492.154,302.333 500.872,300.082C514.698,296.533 528.272,297.54 538.763,302.02L539.276,302.239L539.526,302.339L539.644,302.374L539.868,302.484L539.986,302.519L540.21,302.629L540.328,302.664L540.552,302.774L540.644,302.823L540.868,302.933L540.96,302.982L541.184,303.092L541.276,303.141L541.5,303.251L541.592,303.3L541.777,303.4L541.869,303.449L542.054,303.549L542.146,303.598L542.331,303.698L542.423,303.747L542.608,303.847L542.7,303.896L542.885,303.996L542.977,304.045L543.162,304.145L543.254,304.194L543.439,304.294L543.531,304.343L543.716,304.443L543.808,304.492L543.993,304.592L544.085,304.641L544.244,304.753L544.336,304.802L544.495,304.914L544.587,304.963L544.746,305.075L544.838,305.124L544.997,305.236L545.089,305.285L545.248,305.397L545.34,305.446L545.486,305.533L545.578,305.582L545.737,305.694L545.949,305.844C546.108,305.956 546.293,306.055 546.449,306.167C551.697,309.726 555.593,314.954 557.502,321.001L557.557,321.101C557.614,321.268 557.657,321.41 557.714,321.577L557.728,321.603L557.811,321.756C557.87,321.988 557.929,322.22 558.002,322.478C558.131,322.535 558.152,322.82 558.111,323.172L558.117,323.152Z" style="fill:white;fill-rule:nonzero;"/>
    </g>
</svg>
