<?xml version="1.0" encoding="UTF-8" standalone="no"?>
<!DOCTYPE svg PUBLIC "-//W3C//DTD SVG 1.1//EN" "http://www.w3.org/Graphics/SVG/1.1/DTD/svg11.dtd">
<svg width="100%" height="100%" viewBox="0 0 83 83" version="1.1" xmlns="http://www.w3.org/2000/svg" xmlns:xlink="http://www.w3.org/1999/xlink" xml:space="preserve" xmlns:serif="http://www.serif.com/" style="fill-rule:evenodd;clip-rule:evenodd;stroke-linejoin:round;stroke-miterlimit:2;">
    <g transform="matrix(2.59375,0,0,2.59375,-7.10543e-15,-0.000117694)">
        <circle cx="16" cy="16" r="16" style="fill:rgb(0,140,231);"/>
    </g>
    <g transform="matrix(2.59375,0,0,2.59375,-7.10543e-15,-0.000117694)">
        <path d="M19.086,8.004L11.81,8.004L11.208,11.371L17.77,11.381C21.001,11.381 21.96,12.554 21.929,14.501C21.915,15.499 21.48,17.187 21.296,17.731C20.799,19.191 19.775,20.853 15.937,20.848L9.559,20.844L8.957,24.215L16.214,24.215C18.773,24.215 19.863,23.916 21.014,23.385C23.568,22.207 25.089,19.684 25.7,16.391C26.606,11.491 25.476,8.004 19.085,8.004L19.086,8.004Z" style="fill:white;fill-rule:nonzero;"/>
        <path d="M15.807,15.798C16.044,14.813 16.119,14.418 16.119,14.418L8.673,14.418C6.769,14.418 6.497,15.658 6.316,16.408C6.079,17.389 6.004,17.789 6.004,17.789L13.451,17.789C15.354,17.789 15.626,16.549 15.807,15.798Z" style="fill:white;fill-rule:nonzero;"/>
    </g>
</svg>
