<?xml version="1.0" encoding="UTF-8" standalone="no"?>
<!DOCTYPE svg PUBLIC "-//W3C//DTD SVG 1.1//EN" "http://www.w3.org/Graphics/SVG/1.1/DTD/svg11.dtd">
<svg width="100%" height="100%" viewBox="0 0 83 83" version="1.1" xmlns="http://www.w3.org/2000/svg" xmlns:xlink="http://www.w3.org/1999/xlink" xml:space="preserve" xmlns:serif="http://www.serif.com/" style="fill-rule:evenodd;clip-rule:evenodd;stroke-linejoin:round;stroke-miterlimit:2;">
    <g transform="matrix(1.29702,0,0,1.29686,0.0031914,-0.00311808)">
        <path d="M63.033,39.744C58.759,56.887 41.396,67.32 24.251,63.045C7.113,58.771 -3.32,41.407 0.956,24.265C5.228,7.12 22.591,-3.314 39.731,0.96C56.875,5.234 67.307,22.6 63.033,39.744Z" style="fill:white;fill-rule:nonzero;"/>
    </g>
    <g transform="matrix(0.0332,0,0,0.0332,0,-4.33681e-19)">
        <path d="M1280,823.75L1101.4,823.75L1101.4,1175.86L1382.39,1175.86L1382.39,1323.29L1101.4,1323.29L1101.4,1675.38L1288.75,1675.38C1336.89,1675.38 1683.95,1680.81 1683.41,1265.73C1682.88,850.638 1346.8,823.75 1280,823.75Z" style="fill:rgb(194,166,51);fill-rule:nonzero;"/>
    </g>
    <g transform="matrix(0.0332,0,0,0.0332,0,-4.33681e-19)">
        <path d="M1250,0C559.637,0 0,559.637 0,1250C0,1940.36 559.637,2500 1250,2500C1940.36,2500 2500,1940.36 2500,1250C2500,559.638 1940.36,0 1250,0ZM1299.12,1925.12L846.425,1925.12L846.425,1323.3L686.85,1323.3L686.85,1175.88L846.413,1175.88L846.413,574.012L1234.94,574.012C1326.85,574.012 1935.64,554.925 1935.64,1260.86C1935.64,1978.48 1299.12,1925.12 1299.12,1925.12Z" style="fill:rgb(194,166,51);fill-rule:nonzero;"/>
    </g>
</svg>
