<?xml version="1.0" encoding="UTF-8" standalone="no"?>
<!DOCTYPE svg PUBLIC "-//W3C//DTD SVG 1.1//EN" "http://www.w3.org/Graphics/SVG/1.1/DTD/svg11.dtd">
<svg width="100%" height="100%" viewBox="0 0 83 83" version="1.1" xmlns="http://www.w3.org/2000/svg" xmlns:xlink="http://www.w3.org/1999/xlink" xml:space="preserve" xmlns:serif="http://www.serif.com/" style="fill-rule:evenodd;clip-rule:evenodd;stroke-linejoin:round;stroke-miterlimit:2;">
    <g transform="matrix(1.29702,0,0,1.29686,0.0031914,-0.00311808)">
        <path d="M63.033,39.744C58.759,56.887 41.396,67.32 24.251,63.045C7.113,58.771 -3.32,41.407 0.956,24.265C5.228,7.12 22.591,-3.314 39.731,0.96C56.875,5.234 67.307,22.6 63.033,39.744Z" style="fill:rgb(68,63,84);fill-rule:nonzero;"/>
    </g>
    <g id="Shape" transform="matrix(0.021041,0,0,0.021041,23.8574,15.1987)">
        <path d="M838.5,0.062L249.988,807.314L0,1994.76L838.5,2499.94L1677,1994.76L1427.01,802.106L838.5,0.062ZM385.398,828.146L838.5,208.385L1291.6,828.146L838.5,2187.45L385.398,828.146ZM1354.1,1031.26L1541.59,1937.47L927.037,2307.24L1354.1,1031.26ZM135.41,1937.47L322.901,1031.26L749.963,2307.24L135.41,1937.47Z" style="fill:white;fill-rule:nonzero;"/>
    </g>
</svg>
