<?xml version="1.0" encoding="utf-8"?>
<!-- Generator: Adobe Illustrator 24.1.1, SVG Export Plug-In . SVG Version: 6.00 Build 0)  -->
<svg version="1.1" id="Laag_1" xmlns:serif="http://www.serif.com/"
	 xmlns="http://www.w3.org/2000/svg" xmlns:xlink="http://www.w3.org/1999/xlink" x="0px" y="0px" viewBox="0 0 1592 1592"
	 style="enable-background:new 0 0 1592 1592;" xml:space="preserve">
<style type="text/css">
	.st0{fill:#627EEA;}
	.st1{fill:#FFFFFF;}
</style>
<g transform="matrix(1.29702,0,0,1.29686,0.0031914,-0.00311808)">
	<g>
		<g>
			<path class="st0" d="M1209.1,762.3c-82,328.8-415,528.9-743.9,446.9c-328.7-82-528.8-415-446.8-743.8
				c81.9-328.9,415-529,743.7-447C1090.9,100.3,1291,433.4,1209.1,762.3z"/>
		</g>
	</g>
</g>
<g>
	<g>
		<g transform="matrix(0.0299102,0,0,0.0299102,12.7818,12.7863)">
			<g>
				<path class="st1" d="M15829.5,26247.8c-210,0-416-88-562.1-252.1c-219.1-246.1-252.6-606.3-82.4-888.6L25538.9,7928.7
					c174.4-289.3,520.2-427,845.8-336.4c325.5,90.5,550.7,386.9,550.7,724.8v12473.4c0,295-172.4,562.8-441,684.9l-10353.9,4705
					C16040.5,26225.8,15934.5,26247.8,15829.5,26247.8z M25431,11022.4l-7706.1,12785.4l7706.1-3501.8V11022.4z"/>
			</g>
		</g>
		<g transform="matrix(0.0299102,0,0,0.0299102,12.7818,12.7863)">
			<g>
				<path class="st1" d="M26183.2,32368.4c-132.4,0-264.8-34.9-382.8-104.7l-10353.9-6120.6c-241.4-142.7-383.4-407.9-368.4-687.9
					c15.1-280.1,184.6-528.5,440-644.5L25872,20105.5c232.9-105.8,503.5-86,718.5,52.4c215,138.5,344.9,376.7,344.9,632.5v10825.8
					c0,270.1-144.8,519.5-379.5,653.4C26440.4,32335.5,26311.8,32368.4,26183.2,32368.4z M17455.3,25582.9l7975.6,4714.7v-8339.1
					L17455.3,25582.9z"/>
			</g>
		</g>
		<g transform="matrix(0.0299102,0,0,0.0299102,12.7818,12.7863)">
			<g>
				<path class="st1" d="M36536.8,26247.8c-105,0-211-22-311-67.5l-10353.9-4705c-268.6-122.1-441-389.8-441-684.9V8317.1
					c0-337.8,225.2-634.3,550.7-724.8c325.5-90.6,671.4,47.1,845.8,336.4l10353.9,17178.5c170.1,282.3,136.7,642.4-82.4,888.6
					C36952.8,26159.8,36746.8,26247.8,36536.8,26247.8z M26935.5,20305.9l7706.1,3501.8l-7706.1-12785.4V20305.9z"/>
			</g>
		</g>
		<g transform="matrix(0.0299102,0,0,0.0299102,12.7818,12.7863)">
			<g>
				<path class="st1" d="M26183.2,32368.4c-128.6,0-257.2-32.9-372.8-98.9c-234.6-133.9-379.5-383.2-379.5-653.4V20790.4
					c0-255.7,129.9-494,345-632.5c215-138.5,485.7-158.2,718.5-52.4l10353.9,4705.1c255.3,116,424.9,364.5,440,644.5
					s-126.9,545.2-368.4,687.9L26566,32263.7C26448,32333.5,26315.6,32368.4,26183.2,32368.4z M26935.5,21958.5v8339.1
					l7975.6-4714.7L26935.5,21958.5z"/>
			</g>
		</g>
	</g>
	<g>
		<g transform="matrix(0.0299102,0,0,0.0299102,12.7818,12.7863)">
			<g>
				<path class="st1" d="M26183.3,44807c-239.2,0-469.8-114.4-613.5-316.9L15215.9,29901c-205.5-289.5-180.6-683.3,59.8-944.6
					c240.4-261.3,630.7-319,936.3-138.4l10353.9,6116.8c229.1,135.3,369.6,381.6,369.6,647.7v8472.3
					c0,327.4-211.8,617.3-523.8,716.7C26336.4,44795.5,26259.4,44807,26183.3,44807z M18485.5,31908.6l6945.3,9786.4v-5683.1
					L18485.5,31908.6z"/>
			</g>
		</g>
		<g transform="matrix(0.0299102,0,0,0.0299102,12.7818,12.7863)">
			<g>
				<path class="st1" d="M26183.1,44807c-76.2,0-153.1-11.6-228.5-35.6c-311.9-99.5-523.7-389.3-523.7-716.7v-8472.3
					c0-266.1,140.6-512.4,369.8-647.8l10359.7-6116.8c305.6-180.5,696-122.8,936.3,138.7c240.3,261.4,265.1,655.2,59.6,944.6
					L26796.6,44490.3C26652.8,44692.7,26422.2,44807,26183.1,44807z M26935.5,36011.9v5684.1l6950.3-9788L26935.5,36011.9z"/>
			</g>
		</g>
	</g>
</g>
</svg>
