<?xml version="1.0" encoding="UTF-8" standalone="no"?>
<!DOCTYPE svg PUBLIC "-//W3C//DTD SVG 1.1//EN" "http://www.w3.org/Graphics/SVG/1.1/DTD/svg11.dtd">
<svg width="100%" height="100%" viewBox="0 0 83 83" version="1.1" xmlns="http://www.w3.org/2000/svg" xmlns:xlink="http://www.w3.org/1999/xlink" xml:space="preserve" xmlns:serif="http://www.serif.com/" style="fill-rule:evenodd;clip-rule:evenodd;stroke-linejoin:round;stroke-miterlimit:2;">
    <g transform="matrix(1.29702,0,0,1.29686,0.0031914,-0.00311808)">
        <path d="M63.033,39.744C58.759,56.887 41.396,67.32 24.251,63.045C7.113,58.771 -3.32,41.407 0.956,24.265C5.228,7.12 22.591,-3.314 39.731,0.96C56.875,5.234 67.307,22.6 63.033,39.744Z" style="fill:rgb(42,90,218);fill-rule:nonzero;"/>
    </g>
    <g transform="matrix(1.13757,0,0,1.13757,20,16.7011)">
        <path d="M18.9,0L14.9,2.3L4,8.6L0,10.9L0,32.7L4,35L15,41.3L19,43.6L23,41.3L33.8,35L37.8,32.7L37.8,10.9L33.8,8.6L22.9,2.3L18.9,0ZM8,28.1L8,15.5L18.9,9.2L29.8,15.5L29.8,28.1L18.9,34.4L8,28.1Z" style="fill:white;fill-rule:nonzero;"/>
    </g>
</svg>
