<?xml version="1.0" encoding="UTF-8" standalone="no"?>
<!DOCTYPE svg PUBLIC "-//W3C//DTD SVG 1.1//EN" "http://www.w3.org/Graphics/SVG/1.1/DTD/svg11.dtd">
<svg width="100%" height="100%" viewBox="0 0 83 83" version="1.1" xmlns="http://www.w3.org/2000/svg" xmlns:xlink="http://www.w3.org/1999/xlink" xml:space="preserve" xmlns:serif="http://www.serif.com/" style="fill-rule:evenodd;clip-rule:evenodd;stroke-linejoin:round;stroke-miterlimit:2;">
    <g transform="matrix(1.32745,0,0,1.32745,-24.3905,-14.154)">
        <circle cx="49.637" cy="41.925" r="31.263" style="fill:white;"/>
    </g>
    <g transform="matrix(1.00484,0,0,1.00484,7.77151e-15,0)">
        <path d="M41.3,0C18.5,0 0,18.5 0,41.3C0,64.1 18.5,82.6 41.3,82.6C64.1,82.6 82.6,64.1 82.6,41.3C82.7,18.5 64.2,0 41.3,0ZM42,42.7L37.7,57.2L60.7,57.2C61.4,57.2 61.9,57.7 61.9,58.4L61.9,58.7L59.9,65.6C59.7,66.3 59.1,66.7 58.4,66.7L23.2,66.7L29.1,46.6L22.5,48.6L24,44L30.6,42L38.9,13.8C39.1,13.1 39.7,12.7 40.4,12.7L49.3,12.7C50,12.7 50.5,13.2 50.5,13.9L50.5,14.2L43.5,38L50.1,36L48.7,40.8L42,42.7Z" style="fill:rgb(52,93,157);fill-rule:nonzero;"/>
    </g>
</svg>
