<svg xmlns="http://www.w3.org/2000/svg" viewBox="0 0 502 502"><defs><style>.cls-1{fill:#fff;}</style></defs><circle cx="251" cy="251" r="250"/><path class="cls-1" d="M387.64,192.66c-12.48-8.86-25.84-18.32-38.91-27.69a10.69,10.69,0,0,0-.93-.66,17.76,17.76,0,0,0-5.13-2.92l-.15-.08c-34.94-8.56-70.47-17.34-104.83-25.84l-93.5-23.08-2.46-.66c-2.81-.79-6.06-1.68-9.53-1.25a6.54,6.54,0,0,0-2.65,1l-.88.73a10.81,10.81,0,0,0-2.45,4l-.22.6v3.36l.16.51c19.68,56,39.9,112.85,59.4,167.83,15,42.34,30.63,86.19,45.85,129.25a7.67,7.67,0,0,0,6.93,5.13h.72a8.12,8.12,0,0,0,7.22-4l57.19-84.57q20.88-30.87,41.8-61.8l17.1-25.34c9.38-13.91,19.07-28.27,28.68-42.25l.5-.72v-.89c.22-2.57.28-7.83-3.91-10.63m-67,30.84c-13.44,7.1-27.14,14.43-40.94,21.68l24.13-26.22c10-11,20.5-22.35,30.75-33.47l.22-.22a32.22,32.22,0,0,1,3.11-3.44c.78-.79,1.65-1.61,2.45-2.56,5.34,3.75,10.75,7.55,15.95,11.28q5.63,4,11.49,8.13-23.67,12.26-47.16,24.82M286.14,220c-10.33,11.34-21,23-31.62,34.48q-30.89-38-62-75.86l-27.79-33.9-.07-.08c-2.09-2.41-4.12-5.05-6.14-7.53-1.29-1.69-2.67-3.3-4-5,8.37,2.19,16.82,4.25,25.12,6.22,7.3,1.77,14.88,3.6,22.31,5.5l125.71,31c-13.94,15.09-28,30.39-41.52,45.19M249.81,362.69c.8-7.69,1.67-15.6,2.39-23.36.66-6.24,1.3-12.6,2-18.67,1-9.75,2.09-19.85,3-29.74l.2-1.75c.72-6.31,1.44-12.81,1.87-19.34a21.53,21.53,0,0,1,2.61-1.25,30.36,30.36,0,0,0,3.24-1.6q25-13.31,50.11-26.51c16.68-8.78,33.79-17.88,50.76-26.88q-23.09,33.93-46,68c-12.92,19.1-26.2,38.8-39.42,58.21-5.19,7.76-10.61,15.67-15.73,23.28-5.79,8.5-11.71,17.2-17.47,25.93.72-8.79,1.58-17.65,2.51-26.29M149.19,149.38c-.94-2.65-2-5.35-2.83-7.91,19.5,23.87,39.12,47.89,58.27,71.17,9.89,12.08,19.78,24.09,29.67,36.25,1.95,2.27,3.9,4.69,5.78,7,2.45,3,4.9,6.16,7.58,9.16-.88,7.53-1.6,15.15-2.39,22.47-.5,5.12-1,10.26-1.58,15.47v.06c-.22,3.28-.66,6.59-1,9.81L241,327.47l-.08.5c-1.3,14.8-2.89,29.73-4.41,44.23-.64,6-1.22,12.16-1.87,18.32-.36-1.1-.78-2.21-1.16-3.24q-1.65-4.47-3.17-9l-7.74-21.75L149.17,149.38"/></svg>