<?xml version="1.0" encoding="UTF-8" standalone="no"?>
<!DOCTYPE svg PUBLIC "-//W3C//DTD SVG 1.1//EN" "http://www.w3.org/Graphics/SVG/1.1/DTD/svg11.dtd">
<svg width="100%" height="100%" viewBox="0 0 83 83" version="1.1" xmlns="http://www.w3.org/2000/svg" xmlns:xlink="http://www.w3.org/1999/xlink" xml:space="preserve" xmlns:serif="http://www.serif.com/" style="fill-rule:evenodd;clip-rule:evenodd;stroke-linejoin:round;stroke-miterlimit:2;">
    <g transform="matrix(1.29702,0,0,1.29686,0.0031914,-0.00311808)">
        <path d="M63.033,39.744C58.759,56.887 41.396,67.32 24.251,63.045C7.113,58.771 -3.32,41.407 0.956,24.265C5.228,7.12 22.591,-3.314 39.731,0.96C56.875,5.234 67.307,22.6 63.033,39.744Z" style="fill-rule:nonzero;"/>
    </g>
    <g id="XLM-logo" serif:id="XLM logo" transform="matrix(0.06425,0,0,0.06425,15.8643,19.7835)">
        <path d="M799,169.054L799,237.878L769.892,252.684C747.784,263.961 734.614,287.389 736.485,312.111C737.128,320.697 737.467,329.385 737.467,338.072C737.426,465.146 666.032,581.461 552.665,639.153C439.298,696.844 303.113,686.165 200.151,611.509L259.924,581.086L263.309,579.295C349.091,627.331 453.94,626.36 538.815,576.742C623.689,527.123 675.873,436.293 675.933,338.072C675.93,325.91 675.138,313.76 673.564,301.7L207.936,538.663L111.608,587.678L-1,644.975L-1,575.982L112.386,518.279L167.489,490.188L799,169.054ZM245.252,36.89C358.619,-20.842 494.829,-10.188 597.815,64.466L589.591,68.658L534.454,96.715C448.694,48.879 343.986,49.963 259.237,99.563C174.488,149.164 122.365,239.867 122.236,337.971C122.241,350.055 123.032,362.126 124.605,374.107L589.76,137.482L686.087,88.467L799,30.933L799,99.96L685.106,157.933L630.004,185.956L139.633,435.494L112.319,449.387L84.598,463.517L-1,507.09L-1,438.029L28.074,423.223C50.202,411.963 63.389,388.529 61.515,363.797C60.86,355.256 60.533,346.681 60.533,338.072C60.52,210.98 131.885,94.621 245.252,36.89Z" style="fill:white;fill-rule:nonzero;"/>
    </g>
</svg>
