<?xml version="1.0" encoding="UTF-8" standalone="no"?>
<!DOCTYPE svg PUBLIC "-//W3C//DTD SVG 1.1//EN" "http://www.w3.org/Graphics/SVG/1.1/DTD/svg11.dtd">
<svg width="100%" height="100%" viewBox="0 0 83 83" version="1.1" xmlns="http://www.w3.org/2000/svg" xmlns:xlink="http://www.w3.org/1999/xlink" xml:space="preserve" xmlns:serif="http://www.serif.com/" style="fill-rule:evenodd;clip-rule:evenodd;stroke-linejoin:round;stroke-miterlimit:2;">
    <g transform="matrix(1.29702,0,0,1.29686,0.0031914,-0.00311808)">
        <path d="M63.033,39.744C58.759,56.887 41.396,67.32 24.251,63.045C7.113,58.771 -3.32,41.407 0.956,24.265C5.228,7.12 22.591,-3.314 39.731,0.96C56.875,5.234 67.307,22.6 63.033,39.744Z" style="fill:rgb(236,178,68);fill-rule:nonzero;"/>
    </g>
    <g transform="matrix(0.180348,0,0,0.180348,-2.75746,-2.73943)">
        <path d="M325.8,175.1L325.8,140.8L264.3,140.8L264.3,103L226.5,103L226.5,140.8L165,140.8L165,186.3L260.4,186.3L165,315.7L165,350L226.5,350L226.5,387.6L264.3,387.6L264.3,350L325.8,350L325.8,304.5L230.4,304.5L325.8,175.1Z" style="fill:white;fill-rule:nonzero;"/>
    </g>
</svg>
